<?xml version="1.0" encoding="UTF-8"?>
<svg version="1.1" viewBox="0 0 254 251" xmlns="http://www.w3.org/2000/svg">
<title>Fill 34</title>
<desc>Created with Sketch.</desc>
<g fill="none" fill-rule="evenodd">
<g transform="translate(-413 -1143)" fill="#444" stroke="#000">
<g transform="translate(320 1066)">
<g transform="translate(94 78)">
<path d="m0.35421 127.66c0 56.391 36.053 104.24 86.067 121.12 6.292 1.1728 8.5886-2.7685 8.5886-6.1513 0-3.0318-0.11011-11.058-0.17303-21.709-35.007 7.715-42.392-17.113-42.392-17.113-5.7179-14.744-13.968-18.669-13.968-18.669-11.428-7.9225 0.86515-7.7629 0.86515-7.7629 12.623 0.90155 19.269 13.156 19.269 13.156 11.231 19.507 29.455 13.874 36.627 10.603 1.1404-8.2496 4.3965-13.874 7.9909-17.066-27.944-3.2232-57.32-14.169-57.32-63.084 0-13.938 4.8999-25.331 12.954-34.259-1.2977-3.2312-5.6156-16.204 1.2269-33.78 0 0 10.571-3.4307 34.606 13.084 10.044-2.8323 20.803-4.2445 31.507-4.3003 10.689 0.055848 21.456 1.468 31.507 4.3003 24.02-16.515 34.567-13.084 34.567-13.084 6.8662 17.576 2.5483 30.549 1.2505 33.78 8.0695 8.9277 12.938 20.321 12.938 34.259 0 49.035-29.423 59.829-57.454 62.989 4.5145 3.9413 8.5414 11.728 8.5414 23.64 0 17.066-0.1573 30.828-0.1573 35.017 0 3.4147 2.2651 7.3879 8.6515 6.1353 49.967-16.914 85.988-64.728 85.988-121.1 0-70.512-56.345-127.66-125.85-127.66-69.487 0-125.83 57.149-125.83 127.66z"/>
</g>
</g>
</g>
</g>
</svg>
