<?xml version="1.0" encoding="UTF-8"?>
<svg width="537px" height="256px" viewBox="0 0 537 256" version="1.1" xmlns="http://www.w3.org/2000/svg" xmlns:xlink="http://www.w3.org/1999/xlink">
    <!-- Generator: Sketch 52.2 (67145) - http://www.bohemiancoding.com/sketch -->
    <title>Github</title>
    <desc>Created with Sketch.</desc>
    <g id="Page-1" stroke="none" stroke-width="1" fill="none" fill-rule="evenodd">
        <g id="Desktop-HD" transform="translate(-397.000000, -1144.000000)" fill="#444444">
            <g id="link" transform="translate(302.000000, 1066.000000)">
                <g id="Github" transform="translate(96.000000, 79.000000)">
                    <path d="M0.361346434,130.224416 C0.361346434,187.747457 37.1409674,236.554146 88.1622609,253.775248 C94.5810429,254.97161 96.9238984,250.951183 96.9238984,247.500452 C96.9238984,244.407815 96.8115697,236.220466 96.7473819,225.355546 C61.0348834,233.225492 53.500838,207.898426 53.500838,207.898426 C47.6677699,192.858446 39.251142,188.854295 39.251142,188.854295 C27.5930291,180.772748 40.1337245,180.935518 40.1337245,180.935518 C53.0114059,181.85517 59.7912444,194.355933 59.7912444,194.355933 C71.2487703,214.254608 89.8391677,208.508815 97.1565792,205.172023 C98.3199835,196.756796 101.641703,191.019141 105.308432,187.763734 C76.8010168,184.475773 46.8333282,173.309727 46.8333282,123.412477 C46.8333282,109.194487 51.8319547,97.5726847 60.0479957,88.4656837 C58.7241219,85.1695842 54.3192327,71.936355 61.2996582,54.0072012 C61.2996582,54.0072012 72.083212,50.5076388 96.6029593,67.3543697 C106.84894,64.465196 117.825057,63.0246785 128.74501,62.9677088 C139.648916,63.0246785 150.633057,64.465196 160.887061,67.3543697 C185.390762,50.5076388 196.150245,54.0072012 196.150245,54.0072012 C203.154741,71.936355 198.749852,85.1695842 197.425978,88.4656837 C205.658066,97.5726847 210.624598,109.194487 210.624598,123.412477 C210.624598,173.431805 180.608769,184.443219 152.013095,187.666072 C156.618571,191.686499 160.726592,199.629692 160.726592,211.780499 C160.726592,229.188787 160.566122,243.22773 160.566122,247.500452 C160.566122,250.983737 162.876884,255.036719 169.391947,253.758971 C220.3651,236.505315 257.112627,187.73118 257.112627,130.224416 C257.112627,58.2961999 199.632434,0 128.728963,0 C57.8415394,0 0.361346434,58.2961999 0.361346434,130.224416 Z" id="Fill-34" stroke="#000000"></path>
                    <text id="OJPARKINSON" font-family="Futura-Bold, Futura" font-size="32" font-weight="bold" letter-spacing="0.1417143">
                        <tspan x="275.879777" y="138.163749">OJPARKINSON</tspan>
                    </text>
                </g>
            </g>
        </g>
    </g>
</svg>