<?xml version="1.0" encoding="UTF-8"?>
<svg width="253px" height="251px" viewBox="0 0 253 251" version="1.1" xmlns="http://www.w3.org/2000/svg" xmlns:xlink="http://www.w3.org/1999/xlink">
    <!-- Generator: Sketch 51 (57462) - http://www.bohemiancoding.com/sketch -->
    <title>Fill 23</title>
    <desc>Created with Sketch.</desc>
    <defs></defs>
    <g id="Page-2" stroke="none" stroke-width="1" fill="none" fill-rule="evenodd">
        <g id="Desktop-HD" transform="translate(-793.000000, -1410.000000)" fill="#444444" stroke="#000000">
            <g id="link" transform="translate(320.000000, 1066.000000)">
                <g id="Insta" transform="translate(166.000000, 345.000000)">
                    <path d="M528.105493,239.777778 L339.356429,239.777778 C335.015201,239.777778 331.491885,236.301709 331.491885,232.018697 L331.491885,115.632479 L362.950062,115.632479 C358.852635,121.45179 357.468475,132.306744 357.468475,139.196808 C357.468475,180.746688 391.81294,214.553005 434.021949,214.553005 C476.238823,214.553005 510.583288,180.746688 510.583288,139.196808 C510.583288,132.306744 509.592356,121.61473 504.51186,115.632479 L535.970037,115.632479 L535.970037,232.018697 C535.970037,236.301709 532.446722,239.777778 528.105493,239.777778 M433.72702,91.5128205 C460.518275,91.5128205 482.233458,112.635821 482.233458,138.684192 C482.233458,164.740247 460.518275,185.863248 433.72702,185.863248 C406.943647,185.863248 385.228464,164.740247 385.228464,138.684192 C385.228464,112.635821 406.943647,91.5128205 433.72702,91.5128205 M495.632709,44.6923077 L519.081398,44.6923077 C523.395957,44.6923077 526.897628,48.1246769 526.897628,52.3538462 L526.897628,75.3384615 C526.897628,79.5676308 523.395957,83 519.081398,83 L495.632709,83 C491.31815,83 487.816479,79.5676308 487.816479,75.3384615 L487.816479,52.3538462 C487.816479,48.1246769 491.31815,44.6923077 495.632709,44.6923077 M529.134326,0 L337.629719,0 C321.134508,0 307.764045,13.2203437 307.764045,29.5298437 L307.764045,219.470156 C307.764045,235.779656 321.134508,249 337.629719,249 L529.134326,249 C545.629537,249 559,235.779656 559,219.470156 L559,29.5298437 C559,13.2203437 545.629537,0 529.134326,0" id="Fill-23"></path>
                </g>
            </g>
        </g>
    </g>
</svg>