<?xml version="1.0" encoding="UTF-8"?>
<svg width="553px" height="256px" viewBox="0 0 553 256" version="1.1" xmlns="http://www.w3.org/2000/svg" xmlns:xlink="http://www.w3.org/1999/xlink">
    <!-- Generator: Sketch 52.2 (67145) - http://www.bohemiancoding.com/sketch -->
    <title>Insta</title>
    <desc>Created with Sketch.</desc>
    <g id="Page-1" stroke="none" stroke-width="1" fill="none" fill-rule="evenodd">
        <g id="Desktop-HD" transform="translate(-417.000000, -1415.000000)" fill="#444444">
            <g id="link" transform="translate(302.000000, 1066.000000)">
                <g id="Insta" transform="translate(96.000000, 350.000000)">
                    <path d="M539.442284,244.592593 L346.641362,244.592593 C342.206941,244.592593 338.60799,241.046724 338.60799,236.677707 L338.60799,117.954416 L370.741477,117.954416 C366.55609,123.89058 365.142217,134.963506 365.142217,141.991925 C365.142217,184.37614 400.223951,218.861298 443.339057,218.861298 C486.462197,218.861298 521.543931,184.37614 521.543931,141.991925 C521.543931,134.963506 520.531727,124.056793 515.342168,117.954416 L547.475655,117.954416 L547.475655,236.677707 C547.475655,241.046724 543.876705,244.592593 539.442284,244.592593 M443.037797,93.3504274 C470.404177,93.3504274 492.585518,114.897585 492.585518,141.469015 C492.585518,168.048284 470.404177,189.595442 443.037797,189.595442 C415.679468,189.595442 393.498127,168.048284 393.498127,141.469015 C393.498127,114.897585 415.679468,93.3504274 443.037797,93.3504274 M506.272409,45.5897436 L530.224469,45.5897436 C534.631648,45.5897436 538.208489,49.0910359 538.208489,53.4051282 L538.208489,76.8512821 C538.208489,81.1653744 534.631648,84.6666667 530.224469,84.6666667 L506.272409,84.6666667 C501.86523,84.6666667 498.28839,81.1653744 498.28839,76.8512821 L498.28839,53.4051282 C498.28839,49.0910359 501.86523,45.5897436 506.272409,45.5897436 M540.493202,0 L344.877584,0 C328.028272,0 314.370787,13.4858125 314.370787,30.1228125 L314.370787,223.877188 C314.370787,240.514188 328.028272,254 344.877584,254 L540.493202,254 C557.342514,254 571,240.514188 571,223.877188 L571,30.1228125 C571,13.4858125 557.342514,0 540.493202,0" id="Fill-23" stroke="#000000"></path>
                    <text id="OLLIEPARKINSON_" font-family="Futura-Bold, Futura" font-size="27" font-weight="bold" letter-spacing="0.1624946">
                        <tspan x="18.3962543" y="138.934259">OLLIEPARKINSON_</tspan>
                    </text>
                </g>
            </g>
        </g>
    </g>
</svg>