<?xml version="1.0" encoding="UTF-8"?>
<svg width="255px" height="259px" viewBox="0 0 255 259" version="1.1" xmlns="http://www.w3.org/2000/svg" xmlns:xlink="http://www.w3.org/1999/xlink">
    <!-- Generator: Sketch 51 (57462) - http://www.bohemiancoding.com/sketch -->
    <title>Fill 33</title>
    <desc>Created with Sketch.</desc>
    <defs></defs>
    <g id="Page-2" stroke="none" stroke-width="1" fill="none" fill-rule="evenodd">
        <g id="Desktop-HD" transform="translate(-413.000000, -1675.000000)" fill="#444444" stroke="#000000">
            <g id="link" transform="translate(320.000000, 1066.000000)">
                <g id="Linkedin" transform="translate(94.000000, 610.000000)">
                    <path d="M215.011878,232.083102 L177.502841,232.083102 L177.502841,172.629361 C177.502841,158.450452 177.265742,140.21242 158.013316,140.21242 C138.500082,140.21242 135.52054,155.664308 135.52054,171.612578 L135.52054,232.083102 L98.0510192,232.083102 L98.0510192,109.821038 L134.01101,109.821038 L134.01101,126.5379 L134.524724,126.5379 C139.52751,116.922502 151.76181,106.786704 170.010518,106.786704 C207.993752,106.786704 215.011878,132.10218 215.011878,165.031515 L215.011878,232.083102 Z M56.0409856,93.9722992 C44.0120199,93.9722992 34.3178567,84.0862364 34.3178567,71.8990381 C34.3178567,59.7198578 44.0120199,49.833795 56.0409856,49.833795 C68.0147364,49.833795 77.740451,59.7198578 77.740451,71.8990381 C77.740451,84.0862364 68.0147364,93.9722992 56.0409856,93.9722992 L56.0409856,93.9722992 Z M74.2386288,232.795014 L37.1193144,232.795014 L37.1193144,110.34626 L74.2386288,110.34626 L74.2386288,232.795014 Z M242.299542,0 L10.5399155,0 C4.71688873,0 0,4.79465625 0,10.7056563 L0,246.286312 C0,252.205344 4.71688873,257 10.5399155,257 L242.299542,257 C248.114668,257 252.831557,252.205344 252.831557,246.286312 L252.831557,10.7056563 C252.831557,4.79465625 248.114668,0 242.299542,0 L242.299542,0 Z" id="Fill-33"></path>
                </g>
            </g>
        </g>
    </g>
</svg>