<?xml version="1.0" encoding="UTF-8"?>
<svg width="552px" height="256px" viewBox="0 0 552 256" version="1.1" xmlns="http://www.w3.org/2000/svg" xmlns:xlink="http://www.w3.org/1999/xlink">
    <!-- Generator: Sketch 52.2 (67145) - http://www.bohemiancoding.com/sketch -->
    <title>Linkedin</title>
    <desc>Created with Sketch.</desc>
    <g id="Page-1" stroke="none" stroke-width="1" fill="none" fill-rule="evenodd">
        <g id="Desktop-HD" transform="translate(-397.000000, -1687.000000)" fill="#444444">
            <g id="link" transform="translate(302.000000, 1066.000000)">
                <g id="Linkedin" transform="translate(96.000000, 622.000000)">
                    <path d="M221.210418,229.373961 L182.62004,229.373961 L182.62004,170.614232 C182.62004,156.600836 182.376106,138.575699 162.568655,138.575699 C142.492877,138.575699 139.427438,153.847215 139.427438,169.609319 L139.427438,229.373961 L100.877715,229.373961 L100.877715,108.53908 L137.874391,108.53908 L137.874391,125.060803 L138.402915,125.060803 C143.549925,115.557648 156.136925,105.540166 174.911722,105.540166 C213.989968,105.540166 221.210418,130.560132 221.210418,163.105077 L221.210418,229.373961 Z M57.6565816,92.8753463 C45.2808349,92.8753463 35.3072003,83.104685 35.3072003,71.0597498 C35.3072003,59.0227388 45.2808349,49.2520776 57.6565816,49.2520776 C69.9755216,49.2520776 79.9816171,59.0227388 79.9816171,71.0597498 C79.9816171,83.104685 69.9755216,92.8753463 57.6565816,92.8753463 L57.6565816,92.8753463 Z M76.3788416,230.077562 L38.1894208,230.077562 L38.1894208,109.058172 L76.3788416,109.058172 L76.3788416,230.077562 Z M249.284754,0 L10.8437689,0 C4.85287111,0 0,4.7386875 0,10.5806875 L0,243.411375 C0,249.261312 4.85287111,254 10.8437689,254 L249.284754,254 C255.267523,254 260.120394,249.261312 260.120394,243.411375 L260.120394,10.5806875 C260.120394,4.7386875 255.267523,0 249.284754,0 L249.284754,0 Z" id="Fill-33" stroke="#000000"></path>
                    <text id="Oliver-Parkinson" font-family="Futura-Bold, Futura" font-size="30" font-weight="bold" letter-spacing="0.1600325">
                        <tspan x="279.695227" y="135.89512">Oliver Parkinson</tspan>
                    </text>
                </g>
            </g>
        </g>
    </g>
</svg>