<?xml version="1.0" encoding="UTF-8"?>
<svg width="596px" height="295px" viewBox="0 0 596 295" version="1.1" xmlns="http://www.w3.org/2000/svg" xmlns:xlink="http://www.w3.org/1999/xlink">
    <!-- Generator: Sketch 52.5 (67469) - http://www.bohemiancoding.com/sketch -->
    <title>Github</title>
    <desc>Created with Sketch.</desc>
    <g id="Page-1" stroke="none" stroke-width="1" fill="none" fill-rule="evenodd">
        <g id="Desktop-HD" transform="translate(-440.000000, -1922.000000)" fill="#FFFFFF">
            <g id="Footer" transform="translate(361.000000, 1842.000000)">
                <g id="Github" transform="translate(79.888889, 81.000000)">
                    <path d="M0,150.219504 C0,216.574822 42.2000573,272.875451 100.740669,292.740739 C108.105426,294.120795 110.793562,289.483057 110.793562,285.502489 C110.793562,281.934999 110.664679,272.490538 110.591031,259.957382 C69.615365,269.035705 60.9709816,239.819838 60.9709816,239.819838 C54.2782587,222.47057 44.6212211,217.851608 44.6212211,217.851608 C31.2449813,208.529193 45.6338752,208.716956 45.6338752,208.716956 C60.4094188,209.777815 68.1884434,224.197986 68.1884434,224.197986 C81.3345345,247.151969 102.664712,240.523948 111.060535,236.674814 C112.395397,226.967485 116.206659,220.348852 120.413776,216.593599 C87.7050493,212.800793 53.3208403,199.920276 53.3208403,142.361637 C53.3208403,125.96057 59.0561447,112.554317 68.4830336,102.048997 C66.9640525,98.2468038 61.9099881,82.9817008 69.9191612,62.2996455 C69.9191612,62.2996455 82.2919529,58.2627486 110.425324,77.6961824 C122.181318,74.3633954 134.775052,72.701696 147.304345,72.6359791 C159.815226,72.701696 172.418166,74.3633954 184.183365,77.6961824 C212.298325,58.2627486 224.643499,62.2996455 224.643499,62.2996455 C232.68029,82.9817008 227.626225,98.2468038 226.107244,102.048997 C235.552545,112.554317 241.251026,125.96057 241.251026,142.361637 C241.251026,200.061098 206.811581,212.763241 174.001589,216.480941 C179.285802,221.118678 183.999246,230.281496 183.999246,244.297977 C183.999246,264.379192 183.815127,280.57372 183.815127,285.502489 C183.815127,289.52061 186.46644,294.1959 193.941668,292.721963 C252.427044,272.819123 294.590278,216.556046 294.590278,150.219504 C294.590278,67.2471912 228.638879,0 147.285933,0 C65.9513984,0 0,67.2471912 0,150.219504 Z" id="Fill-34" stroke="#9B9B9B"></path>
                    <text id="OJPARKINSON" font-family="Futura-Bold, Futura" font-size="32" font-weight="bold" letter-spacing="0.1417143">
                        <tspan x="335.815266" y="162">OJPARKINSON</tspan>
                    </text>
                </g>
            </g>
        </g>
    </g>
</svg>