<?xml version="1.0" encoding="UTF-8"?>
<svg width="602px" height="270px" viewBox="0 0 602 270" version="1.1" xmlns="http://www.w3.org/2000/svg" xmlns:xlink="http://www.w3.org/1999/xlink">
    <!-- Generator: Sketch 52.5 (67469) - http://www.bohemiancoding.com/sketch -->
    <title>Linkedin</title>
    <desc>Created with Sketch.</desc>
    <g id="Page-1" stroke="none" stroke-width="1" fill="none" fill-rule="evenodd">
        <g id="Desktop-HD" transform="translate(-478.000000, -2236.000000)" fill="#FFFFFF">
            <g id="Footer" transform="translate(361.000000, 1842.000000)">
                <g id="Linkedin" transform="translate(79.888889, 394.000000)">
                    <path d="M595.642482,243.822715 L552.530895,243.822715 L552.530895,181.361585 C552.530895,166.465455 552.258382,147.304877 530.13031,147.304877 C507.702474,147.304877 504.277892,163.538378 504.277892,180.29337 L504.277892,243.822715 L461.211723,243.822715 L461.211723,115.376188 L502.542891,115.376188 L502.542891,132.938649 L503.133336,132.938649 C508.883365,122.83687 522.945045,112.188366 543.919478,112.188366 C587.576092,112.188366 595.642482,138.784392 595.642482,173.379413 L595.642482,243.822715 Z M412.926845,98.7257618 C399.101169,98.7257618 387.959034,88.3396258 387.959034,75.5359545 C387.959034,62.7407066 399.101169,52.3545706 412.926845,52.3545706 C426.68906,52.3545706 437.867459,62.7407066 437.867459,75.5359545 C437.867459,88.3396258 426.68906,98.7257618 412.926845,98.7257618 L412.926845,98.7257618 Z M433.842586,244.570637 L391.178932,244.570637 L391.178932,115.927978 L433.842586,115.927978 L433.842586,244.570637 Z M627.005978,0 L360.629492,0 C353.936706,0 348.515278,5.0371875 348.515278,11.2471875 L348.515278,258.744375 C348.515278,264.962812 353.936706,270 360.629492,270 L627.005978,270 C633.689683,270 639.111111,264.962812 639.111111,258.744375 L639.111111,11.2471875 C639.111111,5.0371875 633.689683,0 627.005978,0 L627.005978,0 Z" id="Fill-33"></path>
                    <text id="Oliver-Parkinson" font-family="Futura-Bold, Futura" font-size="30" font-weight="bold" letter-spacing="0.1600325">
                        <tspan x="37.0087678" y="143">Oliver Parkinson</tspan>
                    </text>
                </g>
            </g>
        </g>
    </g>
</svg>